<?xml version="1.0" encoding="utf-8"?>
<!-- Generator: Adobe Illustrator 18.1.1, SVG Export Plug-In . SVG Version: 6.00 Build 0)  -->
<svg version="1.1" id="Layer_1" xmlns="http://www.w3.org/2000/svg" xmlns:xlink="http://www.w3.org/1999/xlink" x="0px" y="0px"
	 viewBox="0 0 44 32" enable-background="new 0 0 44 32" xml:space="preserve">
<g>
	<g>
		<defs>
			<rect id="SVGID_1_" x="-5.5" width="54.9" height="32"/>
		</defs>
		<clipPath id="SVGID_2_">
			<use xlink:href="#SVGID_1_"  overflow="visible"/>
		</clipPath>
		<rect x="-5.5" clip-path="url(#SVGID_2_)" fill="#EA0020" width="12.9" height="32"/>
		<rect x="36.5" clip-path="url(#SVGID_2_)" fill="#EA0020" width="12.9" height="32"/>
		<rect x="7.4" clip-path="url(#SVGID_2_)" fill="#FFFFFF" width="29" height="32"/>
		<g clip-path="url(#SVGID_2_)">
			<defs>
				<rect id="SVGID_3_" x="-5.5" width="54.9" height="32"/>
			</defs>
			<clipPath id="SVGID_4_">
				<use xlink:href="#SVGID_3_"  overflow="visible"/>
			</clipPath>
			<path clip-path="url(#SVGID_4_)" fill="#EA0020" d="M22,4.1l-1.9,3.7c-0.2,0.4-0.6,0.4-1,0.1l-1.4-0.7l1,5.7c0.2,1-0.5,1-0.8,0.6
				l-2.4-2.8l-0.4,1.4c0,0.2-0.2,0.4-0.5,0.3l-3-0.7l0.8,3c0.2,0.7,0.3,1-0.2,1.1l-1.1,0.5l5.2,4.4c0.2,0.2,0.3,0.5,0.2,0.7
				l-0.5,1.6c1.8-0.2,3.4-0.4,5.2-0.6c0.2,0,0.4,0.1,0.4,0.3l-0.2,5.7h0.9l-0.1-5.7c0-0.2,0.2-0.3,0.4-0.3c1.8,0.2,3.4,0.4,5.2,0.6
				l-0.5-1.6c-0.1-0.3,0-0.6,0.2-0.7l5.2-4.4L31.8,16c-0.5-0.2-0.3-0.5-0.2-1.1l0.8-3l-3,0.7c-0.3,0-0.5-0.1-0.5-0.3l-0.4-1.4
				L26,13.5c-0.3,0.4-1,0.4-0.8-0.6l1-5.7L24.9,8c-0.4,0.2-0.8,0.3-1-0.1L22,4.1z"/>
		</g>
	</g>
</g>
</svg>
