<?xml version="1.0" encoding="utf-8"?>
<!-- Generator: Adobe Illustrator 22.1.0, SVG Export Plug-In . SVG Version: 6.00 Build 0)  -->
<svg version="1.1" id="Layer_1" xmlns="http://www.w3.org/2000/svg" xmlns:xlink="http://www.w3.org/1999/xlink" x="0px" y="0px"
	 viewBox="0 0 500 500" style="enable-background:new 0 0 500 500;" xml:space="preserve">
<style type="text/css">
	.st0{clip-path:url(#SVGID_2_);}
	.st1{clip-path:url(#SVGID_4_);fill:url(#SVGID_5_);}
	.st2{clip-path:url(#SVGID_7_);}
	.st3{clip-path:url(#SVGID_9_);fill:url(#SVGID_10_);}
	.st4{fill:#FFFFFF;}
	.st5{fill:#221E1F;}
	.st6{clip-path:url(#SVGID_12_);}
	.st7{clip-path:url(#SVGID_14_);fill:url(#SVGID_15_);}
	.st8{clip-path:url(#SVGID_17_);}
	.st9{clip-path:url(#SVGID_19_);fill:url(#SVGID_20_);}
	.st10{clip-path:url(#SVGID_22_);}
	.st11{clip-path:url(#SVGID_24_);fill:url(#SVGID_25_);}
	.st12{clip-path:url(#SVGID_27_);}
	.st13{clip-path:url(#SVGID_29_);fill:url(#SVGID_30_);}
	.st14{clip-path:url(#SVGID_32_);}
	.st15{clip-path:url(#SVGID_34_);fill:url(#SVGID_35_);}
	.st16{clip-path:url(#SVGID_37_);}
	.st17{clip-path:url(#SVGID_39_);fill:url(#SVGID_40_);}
	.st18{clip-path:url(#SVGID_42_);}
	.st19{clip-path:url(#SVGID_44_);fill:url(#SVGID_45_);}
	.st20{fill-rule:evenodd;clip-rule:evenodd;fill:#FFFFFF;}
	.st21{fill-rule:evenodd;clip-rule:evenodd;}
</style>
<g>
	<defs>
		<path id="SVGID_1_" d="M54.3,249.5c0-107.6,87.6-195.2,195.2-195.2l0,0c107.6,0,195.2,87.6,195.2,195.2l0,0
			c0,107.6-87.6,195.2-195.2,195.2l0,0C141.9,444.7,54.3,357.1,54.3,249.5 M40.7,249.5c0,115.3,93.5,208.8,208.8,208.8l0,0
			c115.3,0,208.8-93.5,208.8-208.8l0,0c0-115.3-93.5-208.8-208.8-208.8l0,0C134.2,40.7,40.7,134.2,40.7,249.5"/>
	</defs>
	<clipPath id="SVGID_2_">
		<use xlink:href="#SVGID_1_"  style="overflow:visible;"/>
	</clipPath>
	<g class="st0">
		<g>
			<defs>
				
					<rect id="SVGID_3_" x="183.5" y="-466.5" transform="matrix(0.82 -0.5724 0.5724 0.82 -38.5368 670.3203)" width="1725.9" height="1725.9"/>
			</defs>
			<clipPath id="SVGID_4_">
				<use xlink:href="#SVGID_3_"  style="overflow:visible;"/>
			</clipPath>
			
				<linearGradient id="SVGID_5_" gradientUnits="userSpaceOnUse" x1="0" y1="500" x2="1" y2="500" gradientTransform="matrix(471.7396 -329.295 -329.295 -471.7396 164767.9844 236210.6562)">
				<stop  offset="0" style="stop-color:#C7962C"/>
				<stop  offset="3.639220e-02" style="stop-color:#C7962C"/>
				<stop  offset="5.896106e-02" style="stop-color:#C99A2D"/>
				<stop  offset="8.342739e-02" style="stop-color:#D1A731"/>
				<stop  offset="0.1087" style="stop-color:#DDBD38"/>
				<stop  offset="0.1224" style="stop-color:#E5CC3D"/>
				<stop  offset="0.1348" style="stop-color:#DCBC38"/>
				<stop  offset="0.1561" style="stop-color:#D0A731"/>
				<stop  offset="0.1768" style="stop-color:#C99A2D"/>
				<stop  offset="0.1964" style="stop-color:#C7962C"/>
				<stop  offset="0.2162" style="stop-color:#CB9D2C"/>
				<stop  offset="0.2444" style="stop-color:#D6AF2D"/>
				<stop  offset="0.2738" style="stop-color:#E6CA2F"/>
				<stop  offset="0.2815" style="stop-color:#E2C32F"/>
				<stop  offset="0.3151" style="stop-color:#D3AA2D"/>
				<stop  offset="0.3459" style="stop-color:#CA9B2C"/>
				<stop  offset="0.3708" style="stop-color:#C7962C"/>
				<stop  offset="0.3814" style="stop-color:#CEA22D"/>
				<stop  offset="0.4047" style="stop-color:#DAB72F"/>
				<stop  offset="0.4276" style="stop-color:#E2C431"/>
				<stop  offset="0.4493" style="stop-color:#E4C831"/>
				<stop  offset="0.4687" style="stop-color:#D7B22F"/>
				<stop  offset="0.4919" style="stop-color:#CB9D2D"/>
				<stop  offset="0.5075" style="stop-color:#C7962C"/>
				<stop  offset="1" style="stop-color:#C7962C"/>
			</linearGradient>
			<polygon class="st1" points="-155.1,182.8 1260.1,-805.1 2248,610.1 832.8,1598 			"/>
		</g>
	</g>
</g>
<g>
	<defs>
		<path id="SVGID_6_" d="M65.6,249.5c0,101.6,82.3,183.9,183.9,183.9l0,0c101.6,0,183.9-82.3,183.9-183.9l0,0
			c0-101.6-82.3-183.9-183.9-183.9l0,0C147.9,65.6,65.6,147.9,65.6,249.5"/>
	</defs>
	<clipPath id="SVGID_7_">
		<use xlink:href="#SVGID_6_"  style="overflow:visible;"/>
	</clipPath>
	<g class="st2">
		<g>
			<defs>
				
					<rect id="SVGID_8_" x="-10.3" y="-8.7" transform="matrix(0.7463 -0.6656 0.6656 0.7463 -103.6209 229.4764)" width="519" height="518.7"/>
			</defs>
			<clipPath id="SVGID_9_">
				<use xlink:href="#SVGID_8_"  style="overflow:visible;"/>
			</clipPath>
			
				<linearGradient id="SVGID_10_" gradientUnits="userSpaceOnUse" x1="0" y1="500" x2="1" y2="500" gradientTransform="matrix(244.8376 274.5164 274.5164 -244.8376 -137111.7188 122554.4062)">
				<stop  offset="0" style="stop-color:#C7962C"/>
				<stop  offset="0.1059" style="stop-color:#CA9B2E"/>
				<stop  offset="0.2402" style="stop-color:#D3AB33"/>
				<stop  offset="0.3892" style="stop-color:#E1C53B"/>
				<stop  offset="0.4232" style="stop-color:#E5CC3D"/>
				<stop  offset="0.4884" style="stop-color:#DFC23A"/>
				<stop  offset="0.6785" style="stop-color:#D2AA32"/>
				<stop  offset="0.8541" style="stop-color:#CA9B2E"/>
				<stop  offset="1" style="stop-color:#C7962C"/>
			</linearGradient>
			<polygon class="st3" points="270.3,-115.6 615.5,271.5 228.2,616.9 -117.1,229.9 			"/>
		</g>
	</g>
</g>
<g>
	<path class="st4" d="M196.5,80.1c0,0,9.7-3.1,14.8-2.7c2.1,0.1,3.8,1.6,5.1,3.1c2.8,3.5,3.7,8.1,4.8,12.4c0.8,4.1,1.9,8.8-0.4,12.5
		c-2.3,3.3-6.3,4.4-10,5.1c-2.1,0.5-4.3,1-6.4,1.5c-0.1-0.2-0.2-0.6-0.2-0.7C201.7,100.9,196.5,80.1,196.5,80.1 M202.5,82.7
		c1.8,7.8,3.9,15.6,5.8,23.4l0.2,0.9c1.9-0.5,3.9-1,5.7-1.6c2.2-1,2.8-3.7,2.6-6c-0.3-3.9-1.1-7.7-2.4-11.3
		c-0.6-2.2-1.7-4.4-3.5-5.9C208.4,80.6,205.3,82.2,202.5,82.7"/>
	<path class="st4" d="M165.2,94.1c1.6-0.7,3.1-1.5,4.6-2.3c3.8,8,7.8,16,11.6,24c0.3,0.6,0.6,1.1,0.8,1.7c3.8-1.8,7.6-3.7,11.4-5.5
		c0.7,1.5,1.9,4.1,1.9,4.1s-10.4,5.2-15.8,7.7C175.1,113.8,170,104,165.2,94.1"/>
	<path class="st4" d="M144.4,107.3c1.6-1.1,3.7-1.9,5.7-1.5c2,0.3,3.6,1.7,5,3c1.9,2.5,3.4,5.7,2.1,8.8c-0.3,0.5-0.7,1-1,1.5
		c1.5-0.6,3.3-1.1,4.8-0.3c1.6,0.8,2.7,2.3,3.9,3.6c1,1.3,2.1,2.7,3.1,4c0.7,0.8,1.5,1.6,2.6,1.7l0.6,0.1c-1.6,1.5-3.4,2.7-5,4
		c-1.5-1.6-3.1-3.6-4.7-5.4c-1.3-1.6-2.7-3.6-4.9-4.1c-2.7,0.2-4.9,2.8-7.1,4.2c2.9,3.8,5.7,7.6,8.7,11.3c-1.3,1.2-2.6,1.9-3.9,3.1
		c-3.4-3.9-6.1-8.3-9.3-12.4c-3.5-4.7-7.2-9.2-10.6-14C137.8,112.2,141,109.7,144.4,107.3 M143.9,112.5c-1.1,0.7-2.3,1.8-3.1,2.4
		c0,0,4.4,5.8,6.7,8.5c1.7-1.4,3.7-2.6,5-4.3c0.9-1.3,0.9-2.8,0.2-4.3c-0.8-1.4-2-2.7-3.5-3.6C147.4,110.4,145.5,111.3,143.9,112.5"
		/>
	<path class="st4" d="M112.2,137.3c1.9-3.5,5.9-6.3,10-5.3c6,1.4,10.8,5.6,15,9.9c2.5,2.5,4.6,5.6,4.9,9.2c-0.1,3.6-2.3,6.9-5.2,8.9
		c-2.1,1.4-4.7,1.6-7.1,1c-3.5-0.9-6.4-3.1-9.2-5.2c-3.8-3-7.4-6.4-9.3-11C110.3,142.3,110.7,139.5,112.2,137.3 M115.6,139.2
		c-1.1,1.8-0.2,3.8,0.8,5.3c0,0,1.2,1.5,1.5,1.9c3.8,3.7,7.7,7.4,12.5,9.6c1.8,0.9,4.3,0.9,5.7-0.8c1.6-1.5,1.6-3.9,0.6-5.8
		c-1.2-2-3-3.6-4.7-5.3c-3.3-3.2-8.4-7.2-11.3-7.7C119.3,136.1,116.4,137.2,115.6,139.2"/>
	<path class="st4" d="M259.4,72.7c2.4,0.1,4.5,0.3,6.6,0.4c1,3.8,1.5,7.8,2.3,11.7c1.3,7.2,2.7,14.5,4.1,21.7
		c-1.9-0.1-3.8-0.1-5.6-0.1c-0.5-2.7-0.8-5.2-1.3-8l0-0.4c-3.5-0.2-6.4-0.4-9.7-0.5c-0.7,2.6-1.8,5.2-2.5,7.8c0,0-3.7-0.2-5.6-0.4
		C247.7,104.7,255.6,83.3,259.4,72.7 M262,77.2c0,0.3-4.8,15.8-4.9,16c3.2,0.2,4.8,0.2,7.6,0.4C264.2,89.8,262.5,79.7,262,77.2"/>
	<path class="st4" d="M288.2,76.5c1.6,0.4,3.6,0.9,5.2,1.2c0,0-5.3,21.5-7.8,32c-1.6-0.4-5.3-1.2-5.3-1.2
		C280.7,106.7,286,85.3,288.2,76.5"/>
	<path class="st4" d="M368,117.8c1.2,1.1,2.7,2.5,3.9,3.6c0,0-15.2,16.1-22.5,24c-1.2-1.2-4.1-3.7-4.1-3.7
		C346.7,140.4,361.7,124.4,368,117.8"/>
	<path class="st4" d="M343.2,98.7c1.4,1,2.8,2,4.2,3c-5.2,7.2-10.4,14.4-15.5,21.6c-0.4,0.5-0.7,1-1.1,1.5c3.4,2.5,6.8,5,10.3,7.4
		c-0.9,1.4-2.7,3.6-2.7,3.6s-9.6-6.9-14.4-10.4C330.4,116.6,336.8,107.6,343.2,98.7"/>
	<path class="st4" d="M357.8,153.4c8.7-6.7,17.5-13.2,26.2-19.8c0.4,0.6,2.8,3.7,3.7,4.9c-3.9,6.9-13.3,22-13.7,22.8
		c6.5-4.9,13-9.8,19.6-14.7c0,0,1.9,2.3,3,3.7c-8.7,6.7-17.5,13.2-26.2,19.9c-1.1-1.5-4.2-5.3-4.2-5.3s10.6-16,14.6-22.7
		c-0.9,0.6-14.2,10.8-20.1,15.1C359.8,156,358.7,154.7,357.8,153.4"/>
	<path class="st4" d="M376.7,180.4c9.9-4.6,19.9-9.2,29.8-13.9c1.2,2.5,7.4,16.2,7.4,16.2s-2.6,1.1-4,1.7c-1.6-3.8-3.5-7.6-5.1-11.4
		c-2.8,1.1-5.5,2.6-8.3,3.7c1.4,3.7,3.3,7.2,4.8,10.8c-1.3,0.6-2.7,1.2-4,1.9c-1.6-3.6-3.4-7.2-4.9-10.8c-3.2,1.4-6.3,2.9-9.6,4.4
		c1.7,4,3.7,7.9,5.5,11.8c-1.3,0.7-2.7,1.3-4,1.9c-0.5-1.1-1-2.1-1.5-3.2C380.8,189.3,378.7,184.9,376.7,180.4"/>
	<path class="st4" d="M96.5,159c8.9,6.5,17.8,13.1,26.7,19.6l0.4,0.3c-0.7,1.8-1.8,3.6-2.4,5.5c-6.8-1.8-23.2-6.1-24.3-6.4
		c6.7,4.7,13.4,9.3,20.1,14l0.4,0.3c-0.8,1.8-1.6,3.6-2.4,5.5c-10.9-2.6-21.7-5.4-32.6-8c0.1-0.2,0.2-0.5,0.3-0.7
		c0.6-1.4,1.2-2.8,1.8-4.2c8.4,2.3,16.9,4.7,25.3,7c-1-0.7-3.6-2.5-3.9-2.8c-5.9-4-11.8-8-17.6-12.1c0,0,1.6-3.4,2.3-5
		c8.5,2.3,17,4.6,25.4,6.9c-0.8-0.6-1.7-1.2-2.5-1.7c-6.3-4.6-12.9-8.8-19.2-13.2C94.3,163.8,95.8,160.5,96.5,159"/>
	<path d="M197.1,80.9c0,0,9.7-3.1,14.8-2.7c2.1,0.1,3.8,1.6,5.1,3.1c2.8,3.5,3.7,8.1,4.8,12.4c0.8,4.1,1.9,8.8-0.4,12.5
		c-2.3,3.3-6.3,4.4-10,5.1c-2.1,0.5-4.3,1-6.4,1.5c-0.1-0.2-0.2-0.6-0.2-0.7C202.3,101.7,197.1,80.9,197.1,80.9 M203.1,83.5
		c1.8,7.8,3.9,15.6,5.8,23.4l0.2,0.9c1.9-0.5,3.9-1,5.7-1.6c2.2-1,2.8-3.7,2.6-6c-0.3-3.9-1.1-7.7-2.4-11.3
		c-0.6-2.2-1.7-4.4-3.5-5.9C209,81.4,205.9,83,203.1,83.5"/>
	<path d="M165.5,94.7c1.6-0.7,3.1-1.5,4.6-2.3c3.8,8,7.8,16,11.6,24c0.3,0.6,0.6,1.1,0.8,1.7c3.8-1.8,7.6-3.7,11.4-5.5
		c0.7,1.5,1.9,4.1,1.9,4.1s-10.6,5.2-16,7.7C175.1,114.4,170.3,104.6,165.5,94.7"/>
	<path d="M144.9,108.2c1.6-1.1,3.7-1.9,5.7-1.5c2,0.3,3.6,1.7,5,3c1.9,2.5,3.4,5.7,2.1,8.8c-0.3,0.5-0.7,1-1,1.5
		c1.5-0.6,3.3-1.1,4.8-0.3c1.6,0.8,2.7,2.3,3.9,3.6c1,1.3,2.1,2.7,3.1,4c0.7,0.8,1.5,1.6,2.6,1.7l0.6,0.1c-1.6,1.5-3.4,2.7-5,4
		c-1.5-1.6-3.1-3.6-4.7-5.4c-1.3-1.6-2.7-3.6-4.9-4.1c-2.7,0.2-4.6,2.5-6.8,3.9c2.9,3.8,5.6,7.6,8.6,11.3c-1.3,1.2-2.8,2.1-4.1,3.3
		c-3.4-3.9-6.1-8.3-9.3-12.4c-3.5-4.7-7.2-9.2-10.6-14C138.4,113.2,141.6,110.6,144.9,108.2 M144.5,113.4c-1.1,0.7-2,1.5-2.8,2.1
		c0,0,4.2,5.9,6.5,8.6c1.7-1.4,3.5-2.5,4.9-4.2c0.9-1.3,0.9-2.8,0.2-4.3c-0.8-1.4-2-2.7-3.5-3.6C148,111.3,146.1,112.3,144.5,113.4"
		/>
	<path d="M112.7,138.2c1.9-3.5,5.9-6.3,10-5.3c6,1.4,10.8,5.6,15,9.9c2.5,2.5,4.6,5.6,4.9,9.2c-0.1,3.6-2.3,6.9-5.2,8.9
		c-2.1,1.4-4.7,1.6-7.1,1.1c-3.5-0.9-6.4-3.1-9.2-5.2c-3.8-3-7.4-6.4-9.3-11C110.9,143.2,111.2,140.4,112.7,138.2 M116.2,140.1
		c-1.1,1.8-0.2,3.8,0.8,5.3c0,0,1.2,1.5,1.5,1.9c3.8,3.7,7.7,7.4,12.5,9.6c1.8,0.9,4.3,0.9,5.7-0.8c1.6-1.5,1.6-3.9,0.6-5.8
		c-1.2-2-3-3.6-4.7-5.3c-3.4-3.2-8.4-7.2-11.3-7.7C119.8,137,116.9,138.1,116.2,140.1"/>
	<path d="M96.9,159.9c8.9,6.5,17.8,13.1,26.7,19.6l0.4,0.3c-0.7,1.8-1.8,3.6-2.4,5.5c-6.8-1.8-23.2-6.1-24.3-6.4
		c6.7,4.7,13.4,9.3,20.1,14l0.4,0.3c-0.8,1.8-1.6,3.6-2.4,5.5c-10.9-2.6-21.7-5.4-32.6-8c0.1-0.2,0.2-0.5,0.3-0.7
		c0.6-1.4,1.2-2.8,1.8-4.2c8.4,2.3,16.9,4.7,25.3,7c-1-0.7-3.6-2.5-3.9-2.8c-5.9-4-11.8-8-17.6-12.1c0,0,1.6-3.4,2.3-5
		c8.5,2.3,17,4.6,25.4,6.9c-0.8-0.6-1.7-1.2-2.5-1.7c-6.3-4.6-12.9-8.8-19.2-13.2C94.7,164.6,96.2,161.3,96.9,159.9"/>
	<path class="st5" d="M331.2,305.6l-58.8-0.1c-4.8-8.1-13.6-13.6-23.7-13.6c-10.1,0-18.9,5.5-23.7,13.6l-59.3,0.1c0,0-3.9,0-3.7,3.4
		c0,0,0.1,2.6,3.5,2.8h56.8c-0.3,0.9-0.5,1.8-0.6,2.7l-48.4,0.1c0,0-3.9,0-3.7,3.4c0,0,0.1,2.6,3.5,2.8h48.1c0,0.8,0.1,1.6,0.2,2.5
		l-40.6,0.1c0,0-3.9,0-3.7,3.4c0,0,0.1,2.6,3.5,2.8H223c4,10.3,13.9,17.6,25.6,17.6c11.7,0,21.6-7.3,25.6-17.6h41.9
		c3.5-0.1,3.5-2.8,3.5-2.8c0.2-3.3-3.7-3.4-3.7-3.4l-40.2-0.1c0.1-0.8,0.2-1.6,0.2-2.5h47.7c3.5-0.1,3.5-2.8,3.5-2.8
		c0.2-3.3-3.7-3.4-3.7-3.4l-47.9-0.1c-0.2-0.9-0.4-1.8-0.6-2.7h56.3c3.5-0.1,3.5-2.8,3.5-2.8C335.1,305.6,331.2,305.6,331.2,305.6"
		/>
</g>
<g>
	<defs>
		<path id="SVGID_11_" d="M224.1,306.6l-59.3,0.1c0,0-3.9,0-3.7,3.4l0,0c0,0,0.1,2.6,3.5,2.8l0,0h56.8c-0.3,0.9-0.5,1.8-0.6,2.7l0,0
			l-48.4,0.1c0,0-3.9,0-3.7,3.4l0,0c0,0,0.1,2.6,3.5,2.8l0,0h48.2c0,0.8,0.1,1.6,0.2,2.4l0,0l-40.6,0.1c0,0-3.9,0-3.7,3.4l0,0
			c0,0,0.1,2.6,3.5,2.8l0,0h42.4c4,10.3,13.9,17.6,25.6,17.6l0,0c11.7,0,21.6-7.3,25.6-17.6l0,0h41.9c3.5-0.1,3.5-2.8,3.5-2.8l0,0
			c0.2-3.3-3.7-3.4-3.7-3.4l0,0l-40.2-0.1c0.1-0.8,0.2-1.6,0.2-2.5l0,0h47.7c3.5-0.1,3.5-2.8,3.5-2.8l0,0c0.2-3.3-3.7-3.4-3.7-3.4
			l0,0l-47.9-0.1c-0.2-0.9-0.4-1.8-0.6-2.7l0,0h56.3c3.5-0.1,3.5-2.8,3.5-2.8l0,0c0.2-3.3-3.7-3.4-3.7-3.4l0,0l-58.8-0.1
			c-4.8-8.1-13.6-13.6-23.7-13.6l0,0C237.7,293,228.9,298.4,224.1,306.6"/>
	</defs>
	<clipPath id="SVGID_12_">
		<use xlink:href="#SVGID_11_"  style="overflow:visible;"/>
	</clipPath>
	<g class="st6">
		<g>
			<defs>
				
					<rect id="SVGID_13_" x="161.8" y="246" transform="matrix(0.788 -0.6157 0.6157 0.788 -145.1604 220.0135)" width="170.2" height="149.6"/>
			</defs>
			<clipPath id="SVGID_14_">
				<use xlink:href="#SVGID_13_"  style="overflow:visible;"/>
			</clipPath>
			
				<linearGradient id="SVGID_15_" gradientUnits="userSpaceOnUse" x1="0" y1="500" x2="1" y2="500" gradientTransform="matrix(69.7038 89.2168 89.2168 -69.7038 -44390.9883 35124.4062)">
				<stop  offset="0" style="stop-color:#E1E2E3"/>
				<stop  offset="0.3728" style="stop-color:#FFFFFF"/>
				<stop  offset="0.4384" style="stop-color:#EBECEC"/>
				<stop  offset="0.5089" style="stop-color:#DADBDC"/>
				<stop  offset="0.6426" style="stop-color:#FFFFFF"/>
				<stop  offset="0.674" style="stop-color:#FAFAFA"/>
				<stop  offset="0.7136" style="stop-color:#EAEBEB"/>
				<stop  offset="0.7424" style="stop-color:#DADBDC"/>
				<stop  offset="0.7524" style="stop-color:#DEDFE0"/>
				<stop  offset="0.793" style="stop-color:#EAEBEB"/>
				<stop  offset="0.8495" style="stop-color:#F1F1F1"/>
				<stop  offset="1" style="stop-color:#F3F3F3"/>
			</linearGradient>
			<polygon class="st7" points="267.9,209.5 360,327.3 225.9,432.1 133.8,314.2 			"/>
		</g>
	</g>
</g>
<g>
	<path class="st5" d="M110.9,253.4c0,0,3-0.2,3.8-1.8c0.4-0.8-0.3-3-3.8-3c-0.3,0-19.8-0.2-19.8-0.2s-9.2,0.1-12.2-6.5
		c-3-6.5,2.6-14,12.5-14.3c9.9-0.3,32.4,0,32.4,0l-6.9,8.9l-24.5,0c0,0-2-0.1-2.3,1.1c-0.3,1.2,0.6,1.8,1.2,1.7c0.6,0,18.5,0,18.5,0
		s8.5-0.4,12.6,5.1c4.1,5.5,3.4,14.7-8,17.5c-3,0.9-17.4,0.5-17.4,0.5H78.1l7-8.9L110.9,253.4z"/>
	<polygon class="st5" points="126.8,227.7 137.5,227.7 137.5,239.7 154,227.6 170.1,227.6 145.9,245.2 170.3,262.4 154.1,262.4 
		137.6,250.7 137.6,262.5 126.7,262.5 126.7,227.7 	"/>
	<polygon class="st5" points="171.3,227.7 185,227.7 198.1,241.8 210.2,227.6 224.1,227.6 203.5,251 203.5,262.5 192.5,262.5 
		192.5,250.8 	"/>
	<path class="st5" d="M223.9,236.6l6.7-9h57.3c1.1,0,19.5-0.1,16.8,15.6c-0.3,2-1.7,4-3.2,5.3c-2.3,2.1-4.9,3.5-4.9,3.5l11.9,10.4
		h-15.2l-10.5-8.7h-15v8.7h-10.8l-0.1-18c0,0,27.8,0.1,32.2,0c3.4,0,5-2.7,4.8-4c0-1.5-1.8-3.6-5.1-3.6h-39.6v25.8h-11.2v-26
		L223.9,236.6L223.9,236.6z"/>
	<path class="st5" d="M310,262.5l20.1-28.2c0,0,4.4-7,8.9-6.7c4.6,0,8.1,5.1,8.1,5.1l20.5,29.8H327l6.4-9.1h14.5l-8.9-12.5
		l-15.7,21.5H311L310,262.5z"/>
	<polygon class="st5" points="368.6,227.7 382.7,227.6 395.3,240.6 407.6,227.6 421.4,227.6 404.4,245.4 420.6,262.5 407,262.5 
		395.3,250 383.3,262.4 369.7,262.4 386,245.3 	"/>
	<path d="M238.2,402.6c-0.4,4.7-0.9,9.4-2.3,13.9c-0.9,3.2-3.8,5.8-7.2,6c-3.7,0-7.3-0.6-11-1.1c-0.6-0.1-1.3-0.2-1.9-0.3
		c1-7.1,2-14.2,2.9-21.2c0.5-3.5,1-6.9,1.4-10.4c0,0,5.9,0.7,8.7,1.1 M228.7,390.6c2.8,0.4,5.9,0.9,7.8,3.3 M223.8,393.4
		c-1.1,8.2-2.2,16.4-3.4,24.6c1.6,0.2,3.2,0.5,4.8,0.6c1.4,0.2,3,0.3,4.3-0.4c1.5-0.9,2.3-2.5,2.7-4.3c0.9-4.1,1.5-8.2,1.8-12.4
		c0.1-2.2,0.2-4.8-1.6-6.2C230.2,394,224.5,393.5,223.8,393.4"/>
	<path d="M260,73.5c2.4,0.1,4.5,0.3,6.6,0.4c1,3.8,1.5,7.8,2.3,11.7c1.3,7.2,2.7,14.5,4.1,21.7c-1.9-0.1-3.8-0.1-5.6-0.1
		c-0.5-2.7-0.8-5.2-1.3-8l0-0.4c-3.5-0.2-6.4-0.4-9.7-0.5c-0.7,2.6-1.8,5.2-2.5,7.8c0,0-3.7-0.2-5.6-0.4
		C248.3,105.6,256.2,84.2,260,73.5 M262.7,78.1c0,0.3-4.8,15.8-4.9,16c3.2,0.2,4.8,0.2,7.6,0.4C264.9,90.7,263.2,80.6,262.7,78.1"/>
	<path d="M288.8,77.4c1.6,0.4,3.6,0.9,5.2,1.2c0,0-5.3,21.5-7.8,32c-1.6-0.4-5.3-1.2-5.3-1.2C281.4,107.6,286.6,86.2,288.8,77.4"/>
	<path d="M368.6,118.6c1.2,1.1,2.7,2.5,3.9,3.6c0,0-15.2,16.1-22.5,24c-1.2-1.2-4.1-3.7-4.1-3.7
		C347.3,141.3,362.4,125.3,368.6,118.6"/>
	<path d="M343.8,99.6c1.4,1,2.8,2,4.2,3c-5.2,7.2-10.4,14.4-15.5,21.6c-0.4,0.5-0.7,1-1.1,1.5c3.4,2.5,6.8,5,10.3,7.4
		c-0.9,1.4-2.7,3.6-2.7,3.6s-9.6-6.9-14.4-10.4C331,117.5,337.4,108.5,343.8,99.6"/>
	<path class="st4" d="M320.2,86.7c1.8,0.8,3.5,2.2,4.2,4.1c0.8,1.9,0.4,3.9-0.1,5.8c-1.1,2.9-3.2,5.8-6.5,6.3
		c-0.6,0-1.2-0.1-1.8-0.1c1.3,1,2.6,2.3,2.7,4c0.1,1.8-0.6,3.5-1.1,5.2c-0.6,1.6-0.8,2.8-1.4,4.4c-0.4,1.5-0.7,4-0.7,4
		c-0.8-0.2-5-2.2-5-2.2s-0.1-3,1.7-6.9c0.7-2,1.7-4,1-6.2c-1.6-2.3-4.5-2.7-6.8-3.9c-1.8,4.4-3.7,8.8-5.3,13.2
		c-1.7-0.6-3.3-1.3-4.9-1.9c1.6-4.9,4-9.5,5.9-14.3c2.2-5.4,4.3-10.9,6.6-16.2C312.5,83.6,316.4,85.1,320.2,86.7 M315.4,89
		c-1.2-0.5-2.3-1-3.2-1.3c0,0-3,6.7-4.1,10c2,0.7,3.9,1.8,6.1,2c1.5,0.1,2.8-0.7,3.8-2c0.8-1.5,1.3-3.2,1.4-4.8
		C319,90.9,317.2,89.8,315.4,89"/>
	<path d="M320.6,87.8c1.8,0.8,3.5,2.2,4.2,4.1c0.8,1.9,0.4,3.9-0.1,5.8c-1.1,2.9-3.2,5.8-6.5,6.3c-0.6,0-1.2-0.1-1.8-0.1
		c1.3,1,2.6,2.3,2.7,4c0.1,1.8-0.6,3.5-1.1,5.2c-0.6,1.6-0.8,2.8-1.4,4.4c-0.4,1.5-0.7,4-0.7,4c-0.8-0.2-5-2.2-5-2.2s-0.1-3,1.7-6.9
		c0.7-2,1.7-4,1-6.2c-1.6-2.3-4.5-2.7-6.8-3.9c-1.8,4.4-3.7,8.8-5.3,13.2c-1.7-0.6-3.3-1.3-4.9-1.9c1.6-4.9,4-9.5,5.9-14.3
		c2.2-5.4,4.3-10.9,6.6-16.2C313,84.7,316.8,86.2,320.6,87.8 M315.9,90c-1.2-0.5-2.3-1-3.2-1.3c0,0-3,6.7-4.1,10
		c2,0.7,3.9,1.8,6.1,2c1.5,0.1,2.8-0.7,3.8-2c0.8-1.5,1.3-3.2,1.4-4.8C319.4,92,317.7,90.8,315.9,90"/>
	<path d="M358.4,154.2c8.7-6.7,17.5-13.2,26.2-19.8c0.4,0.6,2.8,3.7,3.7,4.9c-3.9,6.9-13.3,22-13.7,22.8c6.5-4.9,13-9.8,19.6-14.7
		c0,0,1.9,2.3,3,3.7c-8.7,6.7-17.5,13.2-26.2,19.9c-1.1-1.5-4.2-5.3-4.2-5.3s10.6-16,14.6-22.7c-0.9,0.6-14.2,10.8-20.1,15.1
		C360.4,156.9,359.4,155.6,358.4,154.2"/>
	<path d="M377.3,181.3c9.9-4.6,19.9-9.2,29.8-13.9c1.2,2.5,7.4,16.2,7.4,16.2s-2.6,1.1-4,1.7c-1.6-3.8-3.5-7.6-5.1-11.4
		c-2.8,1.1-5.5,2.6-8.3,3.7c1.4,3.7,3.3,7.2,4.8,10.8c-1.3,0.6-2.7,1.2-4,1.9c-1.6-3.6-3.4-7.2-4.9-10.8c-3.2,1.4-6.3,2.9-9.6,4.4
		c1.7,4,3.7,7.9,5.5,11.8c-1.3,0.7-2.7,1.3-4,1.9c-0.5-1.1-1-2.1-1.5-3.2C381.4,190.2,379.3,185.7,377.3,181.3"/>
</g>
<g>
	<defs>
		<path id="SVGID_16_" d="M90.7,228.6c-9.9,0.3-15.5,7.7-12.5,14.3l0,0c3,6.5,12.2,6.5,12.2,6.5l0,0c0,0,19.5,0.2,19.8,0.2l0,0
			c3.5,0,4.1,2.1,3.8,3l0,0c-0.8,1.6-3.8,1.8-3.8,1.8l0,0l-25.9,0.2l-7,8.9h19.1c0,0,14.5,0.4,17.4-0.5l0,0
			c11.4-2.8,12.1-11.9,8-17.5l0,0c-4.1-5.5-12.6-5.1-12.6-5.1l0,0c0,0-17.9,0.1-18.5,0l0,0c-0.6,0-1.6-0.5-1.2-1.7l0,0
			c0.3-1.3,2.3-1.1,2.3-1.1l0,0l24.5,0l6.9-8.9c0,0-9-0.1-18.1-0.1l0,0C99.7,228.5,94.3,228.5,90.7,228.6"/>
	</defs>
	<clipPath id="SVGID_17_">
		<use xlink:href="#SVGID_16_"  style="overflow:visible;"/>
	</clipPath>
	<g class="st8">
		<g>
			<defs>
				
					<rect id="SVGID_18_" x="52.1" y="132.7" transform="matrix(0.8988 -0.4384 0.4384 0.8988 -74.6994 71.1559)" width="129.3" height="129.3"/>
			</defs>
			<clipPath id="SVGID_19_">
				<use xlink:href="#SVGID_18_"  style="overflow:visible;"/>
			</clipPath>
			
				<linearGradient id="SVGID_20_" gradientUnits="userSpaceOnUse" x1="0" y1="500" x2="1" y2="500" gradientTransform="matrix(-18.8889 -38.728 -38.728 18.8889 19475.9395 -9179.0068)">
				<stop  offset="0" style="stop-color:#C5C6C8"/>
				<stop  offset="2.032560e-02" style="stop-color:#D3D4D6"/>
				<stop  offset="5.716654e-02" style="stop-color:#E7E7E8"/>
				<stop  offset="9.977486e-02" style="stop-color:#F5F5F5"/>
				<stop  offset="0.1528" style="stop-color:#FDFDFD"/>
				<stop  offset="0.2485" style="stop-color:#FFFFFF"/>
				<stop  offset="0.3244" style="stop-color:#EBEBEB"/>
				<stop  offset="0.4249" style="stop-color:#D6D6D6"/>
				<stop  offset="0.4911" style="stop-color:#CECECE"/>
				<stop  offset="0.6746" style="stop-color:#FFFFFF"/>
				<stop  offset="0.74" style="stop-color:#FBFBFB"/>
				<stop  offset="0.8" style="stop-color:#F0F0F1"/>
				<stop  offset="0.858" style="stop-color:#DEDEDE"/>
				<stop  offset="0.9144" style="stop-color:#C4C4C5"/>
				<stop  offset="0.9467" style="stop-color:#B1B1B3"/>
				<stop  offset="1" style="stop-color:#B1B1B3"/>
			</linearGradient>
			<polygon class="st9" points="87,283.8 30.3,167.6 146.5,110.9 203.2,227.1 			"/>
		</g>
	</g>
</g>
<g>
	<defs>
		<polygon id="SVGID_21_" points="153.2,228.6 136.7,240.7 136.7,228.6 126,228.6 125.9,228.6 125.9,263.4 136.8,263.4 136.8,251.7 
			153.3,263.4 169.5,263.4 145.1,246.2 169.3,228.6 		"/>
	</defs>
	<clipPath id="SVGID_22_">
		<use xlink:href="#SVGID_21_"  style="overflow:visible;"/>
	</clipPath>
	<g class="st10">
		<g>
			<defs>
				<polygon id="SVGID_23_" points="134.5,280.4 112,234.9 161.8,210.9 184.3,256.4 				"/>
			</defs>
			<clipPath id="SVGID_24_">
				<use xlink:href="#SVGID_23_"  style="overflow:visible;"/>
			</clipPath>
			
				<linearGradient id="SVGID_25_" gradientUnits="userSpaceOnUse" x1="0" y1="500" x2="1" y2="500" gradientTransform="matrix(-22.4229 -45.4209 -45.9738 22.1532 23146.1621 -10808.1914)">
				<stop  offset="0" style="stop-color:#C5C6C8"/>
				<stop  offset="7.302239e-02" style="stop-color:#CDCDCF"/>
				<stop  offset="0.1835" style="stop-color:#E1E2E3"/>
				<stop  offset="0.3018" style="stop-color:#FFFFFF"/>
				<stop  offset="0.3462" style="stop-color:#EBEBEB"/>
				<stop  offset="0.405" style="stop-color:#D6D6D6"/>
				<stop  offset="0.4438" style="stop-color:#CECECE"/>
				<stop  offset="0.5799" style="stop-color:#FFFFFF"/>
				<stop  offset="0.668" style="stop-color:#FBFBFB"/>
				<stop  offset="0.749" style="stop-color:#F0F0F1"/>
				<stop  offset="0.8272" style="stop-color:#DEDEDE"/>
				<stop  offset="0.9031" style="stop-color:#C4C4C5"/>
				<stop  offset="0.9467" style="stop-color:#B1B1B3"/>
				<stop  offset="1" style="stop-color:#B1B1B3"/>
			</linearGradient>
			<polygon class="st11" points="134.5,280.4 112,234.9 161.8,210.9 184.3,256.4 			"/>
		</g>
	</g>
</g>
<g>
	<defs>
		<polygon id="SVGID_26_" points="209.4,228.6 197.3,242.7 184.3,228.6 170.5,228.6 191.7,251.8 191.7,263.5 202.7,263.5 202.7,252 
			223.3,228.6 		"/>
	</defs>
	<clipPath id="SVGID_27_">
		<use xlink:href="#SVGID_26_"  style="overflow:visible;"/>
	</clipPath>
	<g class="st12">
		<g>
			<defs>
				
					<rect id="SVGID_28_" x="165.3" y="216.5" transform="matrix(0.829 -0.5592 0.5592 0.829 -103.7324 152.0984)" width="63.3" height="58.4"/>
			</defs>
			<clipPath id="SVGID_29_">
				<use xlink:href="#SVGID_28_"  style="overflow:visible;"/>
			</clipPath>
			
				<linearGradient id="SVGID_30_" gradientUnits="userSpaceOnUse" x1="0" y1="500" x2="1" y2="500" gradientTransform="matrix(-26.2209 -38.8741 -38.8741 26.2209 19651.1152 -12855.001)">
				<stop  offset="0" style="stop-color:#C5C6C8"/>
				<stop  offset="6.443048e-02" style="stop-color:#CDCDCF"/>
				<stop  offset="0.1619" style="stop-color:#E1E2E3"/>
				<stop  offset="0.2663" style="stop-color:#FFFFFF"/>
				<stop  offset="0.297" style="stop-color:#EFEFEF"/>
				<stop  offset="0.3446" style="stop-color:#DDDDDD"/>
				<stop  offset="0.3944" style="stop-color:#D2D2D2"/>
				<stop  offset="0.4497" style="stop-color:#CECECE"/>
				<stop  offset="0.4925" style="stop-color:#D3D3D3"/>
				<stop  offset="0.5438" style="stop-color:#E2E2E2"/>
				<stop  offset="0.5993" style="stop-color:#FAFAFA"/>
				<stop  offset="0.6095" style="stop-color:#FFFFFF"/>
				<stop  offset="0.6905" style="stop-color:#FBFBFB"/>
				<stop  offset="0.7649" style="stop-color:#F0F0F1"/>
				<stop  offset="0.8368" style="stop-color:#DEDEDE"/>
				<stop  offset="0.9067" style="stop-color:#C4C4C5"/>
				<stop  offset="0.9467" style="stop-color:#B1B1B3"/>
				<stop  offset="1" style="stop-color:#B1B1B3"/>
			</linearGradient>
			<polygon class="st13" points="187,287.6 154.3,239.2 206.8,203.8 239.4,252.2 			"/>
		</g>
	</g>
</g>
<g>
	<defs>
		<path id="SVGID_31_" d="M287,228.5h-57.3l-6.7,9l0,0h14.1v26h11.2v-25.8h39.6c3.2,0,5.1,2.1,5.1,3.6l0,0c0.2,1.3-1.4,4-4.8,4l0,0
			c-4.4,0-32.2,0-32.2,0l0,0l0.1,18h10.8v-8.7h15l10.5,8.7h15.2L295.7,253c0,0,2.6-1.4,4.9-3.5l0,0c1.5-1.4,2.9-3.3,3.2-5.3l0,0
			c2.5-14.9-14.1-15.6-16.6-15.6l0,0C287.2,228.5,287.1,228.5,287,228.5"/>
	</defs>
	<clipPath id="SVGID_32_">
		<use xlink:href="#SVGID_31_"  style="overflow:visible;"/>
	</clipPath>
	<g class="st14">
		<g>
			<defs>
				
					<rect id="SVGID_33_" x="220.4" y="211.5" transform="matrix(0.8988 -0.4384 0.4384 0.8988 -80.8024 141.5158)" width="91.3" height="68.5"/>
			</defs>
			<clipPath id="SVGID_34_">
				<use xlink:href="#SVGID_33_"  style="overflow:visible;"/>
			</clipPath>
			
				<linearGradient id="SVGID_35_" gradientUnits="userSpaceOnUse" x1="0" y1="500" x2="1" y2="500" gradientTransform="matrix(-28.7009 -58.8456 -58.8456 28.7009 29705.6523 -14074.9082)">
				<stop  offset="0" style="stop-color:#C5C6C8"/>
				<stop  offset="6.586299e-02" style="stop-color:#CDCDCF"/>
				<stop  offset="0.1655" style="stop-color:#E1E2E3"/>
				<stop  offset="0.2722" style="stop-color:#FFFFFF"/>
				<stop  offset="0.346" style="stop-color:#EFEFEF"/>
				<stop  offset="0.4656" style="stop-color:#DADADA"/>
				<stop  offset="0.5444" style="stop-color:#D3D3D2"/>
				<stop  offset="0.5444" style="stop-color:#CECECE"/>
				<stop  offset="0.5843" style="stop-color:#D3D3D3"/>
				<stop  offset="0.6307" style="stop-color:#E1E1E1"/>
				<stop  offset="0.6801" style="stop-color:#F8F8F8"/>
				<stop  offset="0.6923" style="stop-color:#FFFFFF"/>
				<stop  offset="0.7221" style="stop-color:#F4F4F4"/>
				<stop  offset="0.8285" style="stop-color:#CFCFD1"/>
				<stop  offset="0.9151" style="stop-color:#B9B9BB"/>
				<stop  offset="0.9704" style="stop-color:#B1B1B3"/>
				<stop  offset="1" style="stop-color:#B1B1B3"/>
			</linearGradient>
			<polygon class="st15" points="240.1,296.6 210,235 292.1,194.9 322.2,256.5 			"/>
		</g>
	</g>
</g>
<g>
	<defs>
		<path id="SVGID_36_" d="M329.3,235.2l-20.1,28.2l1.1,0h12.2l15.7-21.5l8.9,12.5h-14.5l-6.4,9.1h40.7l-20.5-29.8
			c0,0-3.5-5.1-8.1-5.1l0,0c-0.1,0-0.2,0-0.3,0l0,0C333.4,228.5,329.3,235.2,329.3,235.2"/>
	</defs>
	<clipPath id="SVGID_37_">
		<use xlink:href="#SVGID_36_"  style="overflow:visible;"/>
	</clipPath>
	<g class="st16">
		<g>
			<defs>
				
					<rect id="SVGID_38_" x="304.4" y="217.3" transform="matrix(0.8988 -0.4384 0.4384 0.8988 -73.4739 173.0089)" width="67.1" height="56.7"/>
			</defs>
			<clipPath id="SVGID_39_">
				<use xlink:href="#SVGID_38_"  style="overflow:visible;"/>
			</clipPath>
			
				<linearGradient id="SVGID_40_" gradientUnits="userSpaceOnUse" x1="0" y1="500" x2="1" y2="500" gradientTransform="matrix(-19.57 -40.1245 -40.1245 19.57 20405.75 -9510.5088)">
				<stop  offset="0" style="stop-color:#C5C6C8"/>
				<stop  offset="0.1662" style="stop-color:#ECEDED"/>
				<stop  offset="0.2663" style="stop-color:#FFFFFF"/>
				<stop  offset="0.344" style="stop-color:#EBEBEB"/>
				<stop  offset="0.447" style="stop-color:#D6D6D6"/>
				<stop  offset="0.5148" style="stop-color:#CECECE"/>
				<stop  offset="0.6526" style="stop-color:#D0D0D0"/>
				<stop  offset="0.7046" style="stop-color:#D7D7D7"/>
				<stop  offset="0.7421" style="stop-color:#E3E3E3"/>
				<stop  offset="0.7725" style="stop-color:#F4F4F4"/>
				<stop  offset="0.787" style="stop-color:#FFFFFF"/>
				<stop  offset="0.8347" style="stop-color:#F3F3F3"/>
				<stop  offset="0.9203" style="stop-color:#D4D4D5"/>
				<stop  offset="1" style="stop-color:#B1B1B3"/>
			</linearGradient>
			<polygon class="st17" points="320.2,285.8 295.3,234.8 355.7,205.4 380.6,256.4 			"/>
		</g>
	</g>
</g>
<g>
	<defs>
		<polygon id="SVGID_41_" points="367.8,228.6 385.2,246.3 369,263.4 382.5,263.4 394.5,251 406.2,263.4 419.8,263.4 403.6,246.3 
			420.6,228.6 406.8,228.6 394.5,241.5 381.9,228.5 		"/>
	</defs>
	<clipPath id="SVGID_42_">
		<use xlink:href="#SVGID_41_"  style="overflow:visible;"/>
	</clipPath>
	<g class="st18">
		<g>
			<defs>
				
					<rect id="SVGID_43_" x="334.7" y="94.8" transform="matrix(0.8988 -0.4384 0.4384 0.8988 -35.0287 200.0904)" width="162.2" height="162.2"/>
			</defs>
			<clipPath id="SVGID_44_">
				<use xlink:href="#SVGID_43_"  style="overflow:visible;"/>
			</clipPath>
			
				<linearGradient id="SVGID_45_" gradientUnits="userSpaceOnUse" x1="0" y1="500" x2="1" y2="500" gradientTransform="matrix(-23.6977 -48.5875 -48.5875 23.6977 24700.709 -11578.8252)">
				<stop  offset="0" style="stop-color:#C5C6C8"/>
				<stop  offset="7.302239e-02" style="stop-color:#CDCDCF"/>
				<stop  offset="0.1835" style="stop-color:#E1E2E3"/>
				<stop  offset="0.3018" style="stop-color:#FFFFFF"/>
				<stop  offset="0.3462" style="stop-color:#EBEBEB"/>
				<stop  offset="0.405" style="stop-color:#D6D6D6"/>
				<stop  offset="0.4438" style="stop-color:#CECECE"/>
				<stop  offset="0.5799" style="stop-color:#FFFFFF"/>
				<stop  offset="0.668" style="stop-color:#FBFBFB"/>
				<stop  offset="0.749" style="stop-color:#F0F0F1"/>
				<stop  offset="0.8272" style="stop-color:#DEDEDE"/>
				<stop  offset="0.9031" style="stop-color:#C4C4C5"/>
				<stop  offset="0.9467" style="stop-color:#B1B1B3"/>
				<stop  offset="1" style="stop-color:#B1B1B3"/>
			</linearGradient>
			<polygon class="st19" points="378.5,284.3 307.4,138.6 453.2,67.5 524.3,213.2 			"/>
		</g>
	</g>
</g>
<g>
	<path class="st4" d="M120.1,312.3l-2.2-4.6l-33.3,5l2,4.1l8-1.4l5,10.2l-6.1,5.3l2,4.2 M98.5,314.7l16-2.6l-12,10.9L98.5,314.7z"/>
	<path class="st4" d="M107.5,352.8l3.3,3.9l18.5-9.2c1.6-0.8,4.3-2,7.7-4.3c-2.5,2.6-4.4,4.8-5.7,6.6L119,366.4l3.2,3.9l29.9-14.4
		l-2.7-3.2l-22.1,11.3c-1.6,0.8-3.1,1.6-4.5,2.5c1.4-1.4,2.6-2.8,3.6-4l14.8-19.7l-2.9-3.4l-22.4,11.2c-0.6,0.3-2,1.1-4.4,2.4
		c1.6-1.7,2.7-2.9,3.4-3.8l15.1-19.8l-2.8-3.3L107.5,352.8z"/>
	<path class="st4" d="M156.9,397.8l3.8,2.7l10.4-31.9l-4.2-2.9l-26.7,20.5l3.8,2.6l6.3-5.1l9.3,6.5L156.9,397.8z M153.4,381.2
		l12.7-10l-5.2,15.3L153.4,381.2z"/>
	<path class="st4" d="M197.9,381.9l-7.9-3l-11.5,30l4,1.5l5.3-13.7l4.7,1.8c2.7,1,3,2.6,1.9,5.8c-1.2,3.5-2.6,6.5-2.9,9.6l4.1,1.6
		c0.2-2.1,0.7-4.2,1.6-6.4c0.3-0.9,0.8-1.9,1.2-3c1.6-4,1.2-6.3-2-8c3.9,0.4,6.5-1.4,8-5.3C206.2,387.6,204.2,384.3,197.9,381.9z
		 M189,393.5l3.8-9.9l4.5,1.7c3.1,1.2,4.1,3.3,2.9,6.4c-1.5,3.8-4,4.6-8.3,3L189,393.5z"/>
	<path class="st4" d="M221.8,417.9l3.5-24.7l4.5,0.6c3.4,0.5,5.2,1.5,5.8,4.4c0.2,0.7,0.1,3.7-0.6,8.8c-0.7,5.2-1.5,8.5-2.7,10.1
		c-1.2,1.5-3.1,1.8-6,1.4L221.8,417.9z M217.1,420.9l7.6,1.1c4.8,0.7,7.9,0.9,10.7-2.2c2-2.2,2.8-6.1,3.6-11.6
		c1-7,1.5-11.4-0.9-14.5c-2-2.4-4.8-2.9-8.9-3.5l-7.6-1.1L217.1,420.9z"/>
	<path class="st4" d="M256.1,414.9c0,0.4,0,0.7,0,1c0.5,5.9,3.9,8.5,10.1,8c6.3-0.5,9.5-4.1,9-9.7c-0.3-3.7-2.6-5.4-6.9-7.7
		c-5.4-2.9-8.6-4.1-8.9-7.6c-0.2-2.4,1.6-4.5,4.6-4.8c3.1-0.3,4.9,1.4,5.2,4.8c0,0.2,0,0.4,0.1,0.7l4.4-0.4c0-0.3,0-0.5-0.1-0.8
		c-0.5-5.4-3.9-8.1-9.7-7.6c-5.7,0.5-9.2,4.2-8.7,9c0.4,4.6,3,6.1,8,8.8c4.7,2.5,7.6,3.6,7.9,6.7c0.2,2.8-1.8,5.1-4.9,5.4
		c-3.3,0.3-4.9-1.4-5.2-5.5c0-0.2,0-0.4-0.1-0.6L256.1,414.9z"/>
	<path class="st4" d="M325.4,407.6l14.7-7.8l-1.7-3.3l-10.6,5.6l1.7-12.5c0.7-5,0.3-8.9-1.1-11.5c-2-3.8-5.8-4.7-10.3-2.4
		c-4.8,2.6-6.2,6.3-3.9,10.6c0.1,0.2,0.3,0.5,0.4,0.7l3.8-2c-1.5-3.2-1.2-5.1,1.1-6.4c2.2-1.2,4.3-0.5,5.3,1.5
		c0.7,1.3,1.1,3.9,0.6,7.4l-2,16.5L325.4,407.6z"/>
	<path class="st4" d="M391.8,354.4l-24.2-19.6l-1.9,2.4c-0.1,3-0.2,5.2-0.6,6.7l3.3,2.7c0.3-2.8,0.4-4.6,0.4-5.7l20.5,16.6
		L391.8,354.4z"/>
	<path class="st4" d="M350.6,374c-5.5-6.8-7.8-9.9-4.3-12.8c3.5-2.9,6.1,0,11.6,6.8c5.5,6.8,7.8,9.9,4.3,12.8
		C358.6,383.7,356.1,380.8,350.6,374z M344.2,358.5c-2.4,1.9-3.5,4.2-3.3,6.8c0.2,3.2,2.8,6.4,6.7,11.2c3.9,4.8,6.5,8,9.6,8.9
		c2.5,0.6,4.9,0,7.3-1.9c2.4-1.9,3.5-4.2,3.3-6.7c-0.2-3.1-2.6-6.2-6.2-10.6c-0.2-0.2-0.3-0.4-0.5-0.6c-0.2-0.2-0.3-0.4-0.5-0.6
		c-3.6-4.4-6.1-7.5-9.1-8.3C349,355.9,346.5,356.6,344.2,358.5z"/>
	<g>
		<g>
			<path class="st20" d="M393.6,320.3c-0.7,3.4,0.9,6.2,4.8,8.1c5.2,2.5,9.6,1.2,12-3.6c2.3-4.7,0.6-9-4.5-11.5
				c-4-1.9-7.2-1.5-9.4,1.2c0.6-3.3-0.9-5.8-4.3-7.5c-4.4-2.2-8.4-0.8-10.6,3.7c-2.2,4.5-0.9,8.5,3.6,10.7
				C388.5,323.2,391.4,322.8,393.6,320.3z M404.1,317c3.2,1.6,4.3,4,3.2,6.5c-1.2,2.5-3.8,3.1-7.3,1.4c-3.6-1.7-4.6-3.9-3.4-6.5
				C398,315.5,400.4,315.2,404.1,317z M390.8,310.7c2.8,1.4,4,3.9,3,6c-1.1,2.2-3.7,2.9-6.6,1.4c-3-1.4-3.9-3.5-2.7-5.9
				C385.6,309.9,387.9,309.3,390.8,310.7z"/>
		</g>
	</g>
</g>
<path d="M92,331l2,4.2l24.6-22.9l-2.2-4.6l-33.3,5l2,4.1l8-1.4l5,10.2L92,331z M97,314.7l16-2.6L101,323L97,314.7z"/>
<path d="M106.1,352.8l3.3,3.9l18.5-9.2c1.6-0.8,4.3-2,7.7-4.3c-2.5,2.6-4.4,4.8-5.7,6.6l-12.4,16.6l3.2,3.9l29.9-14.4l-2.7-3.2
	l-22.1,11.3c-1.6,0.8-3.1,1.6-4.5,2.5c1.4-1.4,2.6-2.8,3.6-4l14.8-19.7l-2.9-3.4l-22.4,11.2c-0.6,0.3-2,1.1-4.4,2.4
	c1.6-1.7,2.7-2.9,3.4-3.8l15.1-19.8l-2.8-3.3L106.1,352.8z"/>
<path d="M155.5,397.8l3.8,2.7l10.4-31.9l-4.2-2.9l-26.7,20.5l3.8,2.6l6.3-5.1l9.3,6.5L155.5,397.8z M151.9,381.2l12.7-10l-5.2,15.3
	L151.9,381.2z"/>
<path d="M196.4,381.9l-7.9-3l-11.5,30l4,1.5l5.3-13.7l4.7,1.8c2.7,1,3,2.6,1.9,5.8c-1.2,3.5-2.6,6.5-2.9,9.6l4.1,1.6
	c0.2-2.1,0.7-4.2,1.6-6.4c0.3-0.9,0.8-1.9,1.2-3c1.6-4,1.2-6.3-2-8c3.9,0.4,6.5-1.4,8-5.3C204.7,387.6,202.7,384.3,196.4,381.9z
	 M187.5,393.5l3.8-9.9l4.5,1.7c3.1,1.2,4.1,3.3,2.9,6.4c-1.5,3.8-4,4.6-8.3,3L187.5,393.5z"/>
<path d="M220.3,417.9l3.5-24.7l4.5,0.6c3.4,0.5,5.2,1.5,5.8,4.4c0.2,0.7,0.1,3.7-0.6,8.8c-0.7,5.2-1.5,8.5-2.7,10.1
	c-1.2,1.5-3.1,1.8-6,1.4L220.3,417.9z M215.6,420.9l7.6,1.1c4.8,0.7,7.9,0.9,10.7-2.2c2-2.2,2.8-6.1,3.6-11.6c1-7,1.5-11.4-0.9-14.5
	c-2-2.4-4.8-2.9-8.9-3.5l-7.6-1.1L215.6,420.9z"/>
<path d="M254.6,414.9c0,0.4,0,0.7,0,1c0.5,5.9,3.9,8.5,10.1,8c6.3-0.5,9.5-4.1,9-9.7c-0.3-3.7-2.6-5.4-6.9-7.7
	c-5.4-2.9-8.6-4.1-8.9-7.6c-0.2-2.4,1.6-4.5,4.6-4.8c3.1-0.3,4.9,1.4,5.2,4.8c0,0.2,0,0.4,0.1,0.7l4.4-0.4c0-0.3,0-0.5-0.1-0.8
	c-0.5-5.4-3.9-8.1-9.7-7.6c-5.7,0.5-9.2,4.2-8.7,9c0.4,4.6,3,6.1,8,8.8c4.7,2.5,7.6,3.6,7.9,6.7c0.2,2.8-1.8,5.1-4.9,5.4
	c-3.3,0.3-4.9-1.4-5.2-5.5c0-0.2,0-0.4-0.1-0.6L254.6,414.9z"/>
<path d="M323.9,407.6l14.7-7.8l-1.7-3.3l-10.6,5.6l1.7-12.5c0.7-5,0.3-8.9-1.1-11.5c-2-3.8-5.8-4.7-10.3-2.4
	c-4.8,2.6-6.2,6.3-3.9,10.6c0.1,0.2,0.3,0.5,0.4,0.7l3.8-2c-1.5-3.2-1.2-5.1,1.1-6.4c2.2-1.2,4.3-0.5,5.3,1.5
	c0.7,1.3,1.1,3.9,0.6,7.4l-2,16.5L323.9,407.6z"/>
<path d="M349.1,374c-5.5-6.8-7.8-9.9-4.3-12.8c3.5-2.9,6.1,0,11.6,6.8c5.5,6.8,7.8,9.9,4.3,12.8C357.1,383.7,354.6,380.8,349.1,374z
	 M342.7,358.5c-2.4,1.9-3.5,4.2-3.3,6.8c0.2,3.2,2.8,6.4,6.7,11.2c3.9,4.8,6.5,8,9.6,8.9c2.5,0.6,4.9,0,7.3-1.9
	c2.4-1.9,3.5-4.2,3.3-6.7c-0.2-3.1-2.6-6.2-6.2-10.6c-0.2-0.2-0.3-0.4-0.5-0.6c-0.2-0.2-0.3-0.4-0.5-0.6c-3.6-4.4-6.1-7.5-9.1-8.3
	C347.5,355.9,345,356.6,342.7,358.5z"/>
<path d="M390.3,354.4l-24.2-19.6l-1.9,2.4c-0.1,3-0.2,5.2-0.6,6.7l3.3,2.7c0.3-2.8,0.4-4.6,0.4-5.7l20.5,16.6L390.3,354.4z"/>
<g>
	<path class="st21" d="M392.4,320.8c-0.7,3.4,0.9,6.2,4.8,8.1c5.2,2.5,9.6,1.2,12-3.6c2.3-4.7,0.6-9-4.5-11.5
		c-4-1.9-7.2-1.5-9.4,1.2c0.6-3.3-0.9-5.8-4.3-7.5c-4.4-2.2-8.4-0.8-10.6,3.7c-2.2,4.5-0.9,8.5,3.6,10.7
		C387.3,323.7,390.2,323.3,392.4,320.8z M403,317.5c3.2,1.6,4.3,4,3.2,6.5c-1.2,2.5-3.8,3.1-7.3,1.4c-3.6-1.7-4.6-3.9-3.4-6.5
		C396.8,316,399.2,315.7,403,317.5z M389.6,311.3c2.8,1.4,4,3.9,3,6c-1.1,2.2-3.7,2.9-6.6,1.4c-3-1.4-3.9-3.5-2.7-5.9
		C384.4,310.4,386.7,309.9,389.6,311.3z"/>
</g>
</svg>
