<?xml version="1.0" encoding="utf-8"?>
<!-- Generator: Adobe Illustrator 19.1.0, SVG Export Plug-In . SVG Version: 6.00 Build 0)  -->
<svg version="1.1" id="Layer_1" xmlns="http://www.w3.org/2000/svg" xmlns:xlink="http://www.w3.org/1999/xlink" x="0px" y="0px"
	 viewBox="1.5 703.6 164.6 15.5" enable-background="new 1.5 703.6 164.6 15.5" xml:space="preserve">
<g>
	<path fill="#FFFFFF" d="M6,712.9H3.3l1.4-3L6,712.9z M7,715.3h0.7L5,709.2H4.3l-2.8,6.1h0.7l0.8-1.9h3.2L7,715.3z"/>
	<path fill="#FFFFFF" d="M16.2,710.9c-0.1-1-0.9-1.3-1.9-1.3c-1,0-1.7,0.4-1.7,1.1c0,0.8,0.7,1,2.2,1.2c1.1,0.2,2.2,0.4,2.2,1.6
		c0,1.5-1.4,1.9-2.5,1.9c-1.5,0-2.7-0.5-2.8-2.2h0.6c0.1,1.3,1,1.6,2.1,1.6c0.9,0,1.9-0.2,1.9-1.2c0-0.9-1.1-1-2.2-1.2
		c-1.5-0.2-2.2-0.6-2.2-1.6c0-1.3,1.2-1.8,2.4-1.8c1.3,0,2.5,0.4,2.6,1.9H16.2z"/>
	<path fill="#FFFFFF" d="M20.3,709.8h-2.4v-0.6h5.4v0.6h-2.4v5.5h-0.6V709.8z"/>
	<path fill="#FFFFFF" d="M28.2,712.9h-2.7l1.4-3L28.2,712.9z M29.2,715.3H30l-2.8-6.1h-0.7l-2.8,6.1h0.7l0.8-1.9h3.2L29.2,715.3z"/>
	<path fill="#FFFFFF" d="M31.9,709.8h2.7c0.6,0,1.3,0.2,1.3,1.1c0,0.9-0.6,1.2-1.3,1.2h-2.7V709.8z M31.3,715.3h0.6v-2.7h2.5
		c1.1,0,1.5,0.4,1.5,1.4c0,0.7,0.1,1.1,0.2,1.2h0.7c-0.1-0.1-0.2-0.9-0.2-1.3c0-1-0.2-1.6-1.1-1.7v0c0.8-0.2,1.2-0.8,1.2-1.5
		c0-1.3-0.9-1.7-2-1.7h-3.3V715.3z"/>
	<path fill="#FFFFFF" d="M45.2,712.9h-2.7l1.4-3L45.2,712.9z M46.2,715.3H47l-2.8-6.1h-0.7l-2.8,6.1h0.7l0.8-1.9h3.2L46.2,715.3z"/>
	<path fill="#FFFFFF" d="M48.2,709.2h0.6v5.5h3.9v0.6h-4.5V709.2z"/>
	<path fill="#FFFFFF" d="M54,709.2h0.6v5.5h3.9v0.6H54V709.2z"/>
	<path fill="#FFFFFF" d="M59.8,709.2h0.6v6.1h-0.6V709.2z"/>
	<path fill="#FFFFFF" d="M66.2,712.9h-2.7l1.4-3L66.2,712.9z M67.3,715.3H68l-2.8-6.1h-0.7l-2.8,6.1h0.7l0.8-1.9h3.2L67.3,715.3z"/>
	<path fill="#FFFFFF" d="M69.2,709.2H70l4.3,5.2h0v-5.2h0.6v6.1h-0.7l-4.3-5.2h0v5.2h-0.6V709.2z"/>
	<path fill="#FFFFFF" d="M82.8,713c-0.1,1.4-1.3,2.5-3,2.5c-2,0-3.3-1.2-3.3-3.2c0-1.4,0.9-3.2,3.3-3.2c1.3,0,2.8,0.6,3,2.2h-0.6
		c-0.2-1.2-1.2-1.6-2.3-1.6c-1.5,0-2.6,0.8-2.6,2.6c0,1.4,0.7,2.6,2.6,2.6c1.5,0,2.2-0.7,2.4-1.9H82.8z"/>
	<path fill="#FFFFFF" d="M84.5,709.2h4.9v0.6h-4.2v2.1h4.1v0.6h-4.1v2.3h4.3v0.6h-4.9V709.2z"/>
	<path fill="#FFFFFF" d="M100.4,709.2h0.9v6.1h-0.6V710h0l-2.7,5.3h-0.6l-2.7-5.3h0v5.3h-0.6v-6.1H95l2.7,5.3L100.4,709.2z"/>
	<path fill="#FFFFFF" d="M103.3,709.2h4.9v0.6h-4.2v2.1h4.1v0.6h-4.1v2.3h4.3v0.6h-4.9V709.2z"/>
	<path fill="#FFFFFF" d="M116.1,709.2h0.9v6.1h-0.6V710h0l-2.7,5.3h-0.6l-2.7-5.3h0v5.3h-0.6v-6.1h0.9l2.7,5.3L116.1,709.2z"/>
	<path fill="#FFFFFF" d="M119.5,709.8h2.7c0.7,0,1.2,0.2,1.2,1c0,0.8-0.6,1.1-1.4,1.1h-2.5V709.8z M118.9,715.3h3.4
		c0.9,0,2-0.5,2-1.7c0-0.8-0.5-1.4-1.3-1.5v0c0.7-0.2,1.1-0.7,1.1-1.3c0-0.9-0.5-1.5-1.7-1.5h-3.5V715.3z M119.5,712.4h2.8
		c0.7,0,1.3,0.2,1.3,1.1c0,0.8-0.6,1.2-1.4,1.2h-2.7V712.4z"/>
	<path fill="#FFFFFF" d="M126,709.2h4.9v0.6h-4.2v2.1h4.1v0.6h-4.1v2.3h4.3v0.6H126V709.2z"/>
	<path fill="#FFFFFF" d="M133.2,709.8h2.7c0.6,0,1.3,0.2,1.3,1.1c0,0.9-0.6,1.2-1.3,1.2h-2.7V709.8z M132.6,715.3h0.6v-2.7h2.5
		c1.1,0,1.5,0.4,1.5,1.4c0,0.7,0.1,1.1,0.2,1.2h0.7c-0.1-0.1-0.2-0.9-0.2-1.3c0-1-0.2-1.6-1.1-1.7v0c0.8-0.2,1.2-0.8,1.2-1.5
		c0-1.3-0.9-1.7-2-1.7h-3.3V715.3z"/>
</g>
<g>
	<g>
		<path fill="#D9D9D9" d="M148.2,707.9c0.6-0.8,1.2-1.6,1.9-2.3c0.7-0.7,1.5-1.4,2.2-2l-0.8,3.4L148.2,707.9z"/>
		<path fill="#262626" d="M154,709.3c-1-0.1-2-0.3-3-0.5c-1-0.2-1.9-0.6-2.9-0.9l3.3-1L154,709.3z"/>
		<path fill="#808080" d="M152.4,703.6c0.4,0.9,0.8,1.8,1,2.8c0.3,1,0.5,2,0.6,2.9l-2.5-2.4L152.4,703.6z"/>
	</g>
	<g>
		<path fill="#808080" d="M147,714.8c-0.6-0.8-1.1-1.6-1.6-2.5c-0.5-0.9-0.9-1.8-1.2-2.8l2.9,1.8L147,714.8z"/>
		<path fill="#262626" d="M150.2,709.7c-0.4,0.9-0.9,1.8-1.4,2.7c-0.5,0.9-1.1,1.7-1.8,2.4l0.1-3.5L150.2,709.7z"/>
		<path fill="#D9D9D9" d="M144.2,709.5c1-0.1,2-0.1,3-0.1s2,0.1,3,0.3l-3.1,1.6L144.2,709.5z"/>
	</g>
	<g>
		<path fill="#262626" d="M153.3,718c-0.9,0.3-1.9,0.6-2.9,0.7c-1,0.2-2,0.3-3,0.3l2.7-2.2L153.3,718z"/>
		<path fill="#808080" d="M149.4,713.4c0.7,0.7,1.4,1.4,2.1,2.2c0.7,0.8,1.2,1.6,1.8,2.4l-3.3-1.2L149.4,713.4z"/>
		<path fill="#D9D9D9" d="M147.3,719.1c0.2-1,0.5-1.9,0.8-2.9s0.8-1.9,1.2-2.7l0.6,3.4L147.3,719.1z"/>
	</g>
	<g>
		<path fill="#808080" d="M158.3,713.1c0,1-0.1,2-0.2,3s-0.4,2-0.6,2.9l-1.3-3.2L158.3,713.1z"/>
		<path fill="#D9D9D9" d="M152.7,715.4c0.9-0.5,1.8-0.9,2.7-1.3c0.9-0.4,1.9-0.7,2.9-0.9l-2.1,2.7L152.7,715.4z"/>
		<path fill="#262626" d="M157.4,719.1c-0.9-0.5-1.7-1-2.5-1.7c-0.8-0.6-1.5-1.3-2.2-2l3.4,0.5L157.4,719.1z"/>
	</g>
	<g>
		<path fill="#808080" d="M155.2,706.9c0.9,0.3,1.9,0.7,2.8,1.1c0.9,0.4,1.8,1,2.6,1.5l-3.5,0.2L155.2,706.9z"/>
		<path fill="#D9D9D9" d="M155.6,712.8c-0.2-1-0.4-2-0.4-3c-0.1-1-0.1-2,0-3l1.9,2.9L155.6,712.8z"/>
		<path fill="#262626" d="M160.5,709.5c-0.7,0.7-1.5,1.3-2.4,1.9c-0.8,0.6-1.7,1.1-2.6,1.5l1.5-3.1L160.5,709.5z"/>
	</g>
</g>
<g>
	<path fill="#FFFFFF" d="M162.5,707.9h-0.7v-0.2h1.7v0.2h-0.7v2h-0.3V707.9z"/>
	<path fill="#FFFFFF" d="M165.7,708.9c0-0.3,0-0.7,0-1h0c-0.1,0.3-0.2,0.5-0.3,0.9l-0.4,1.1h-0.2l-0.4-1.1c-0.1-0.3-0.2-0.6-0.3-0.9
		h0c0,0.3,0,0.7,0,1l-0.1,1h-0.3l0.2-2.3h0.4l0.4,1.1c0.1,0.3,0.2,0.5,0.2,0.8h0c0.1-0.2,0.1-0.5,0.2-0.8l0.4-1.1h0.4l0.1,2.3h-0.3
		L165.7,708.9z"/>
</g>
</svg>
